<?xml version="1.0" encoding="utf-8"?>
<!-- Generator: Adobe Illustrator 22.0.1, SVG Export Plug-In . SVG Version: 6.00 Build 0)  -->
<svg version="1.1" id="Search" xmlns="http://www.w3.org/2000/svg" xmlns:xlink="http://www.w3.org/1999/xlink" x="0px" y="0px"
	 viewBox="0 0 64 64" style="enable-background:new 0 0 64 64;" xml:space="preserve">
<style type="text/css">
	.st0{fill:#C1C0C0;}
</style>
<g>
	<path class="st0" d="M39,35.6l-3.7,3.7c-1.2,1.2-1.2,3.1,0,4.2l14,14c1.2,1.2,3.1,1.2,4.2,0l3.7-3.7c1.2-1.2,1.2-3.1,0-4.2l-14-14
		C42.1,34.5,40.2,34.5,39,35.6z"/>
	<path class="st0" d="M22.3,4.5C12.7,4.5,4.8,12.3,4.8,22s7.8,17.5,17.5,17.5S39.8,31.7,39.8,22S32,4.5,22.3,4.5z M22.3,37
		c-8.3,0-15-6.7-15-15S14,7,22.3,7s15,6.7,15,15S30.6,37,22.3,37z"/>
</g>
</svg>
