<svg xmlns="http://www.w3.org/2000/svg" width="48" height="81" viewBox="0 0 48 81">
  <metadata><?xpacket begin="﻿" id="W5M0MpCehiHzreSzNTczkc9d"?>
<x:xmpmeta xmlns:x="adobe:ns:meta/" x:xmptk="Adobe XMP Core 5.6-c140 79.160451, 2017/05/06-01:08:21        ">
   <rdf:RDF xmlns:rdf="http://www.w3.org/1999/02/22-rdf-syntax-ns#">
      <rdf:Description rdf:about=""/>
   </rdf:RDF>
</x:xmpmeta>
                                                                                                    
                                                                                                    
                                                                                                    
                                                                                                    
                                                                                                    
                                                                                                    
                                                                                                    
                                                                                                    
                                                                                                    
                                                                                                    
                                                                                                    
                                                                                                    
                                                                                                    
                                                                                                    
                                                                                                    
                                                                                                    
                                                                                                    
                                                                                                    
                                                                                                    
                                                                                                    
                           
<?xpacket end="w"?></metadata>
<defs>
    <style>
      .cls-1 {
        fill: #fff;
        fill-rule: evenodd;
      }
    </style>
  </defs>
  <path id="light_bulb_" data-name="light bulb " class="cls-1" d="M1016.39,608c15.99,0,23.61,12.286,23.61,22.309,0,11.745-11.79,19.5-12.14,39.227-0.35,0-11.74-.047-11.74-0.047h-12.13c0-19.584-11.982-27.113-11.982-39.088C992.008,619.732,1000.4,608,1016.39,608Zm-9.4,75.461h17.68a20.392,20.392,0,0,1,.19,2.769,2.884,2.884,0,0,1-2.98,2.77h-11.91a2.884,2.884,0,0,1-2.98-2.77v-2.769Zm-1.48-11.077h20.84a1.388,1.388,0,1,1,0,2.77h-20.84A1.389,1.389,0,1,1,1005.51,672.384Zm0,5.539h20.84a1.388,1.388,0,1,1,0,2.769h-20.84A1.388,1.388,0,1,1,1005.51,677.923Z" transform="translate(-992 -608)"/>
</svg>
