<?xml version="1.0" encoding="utf-8"?>
<!-- Generator: Adobe Illustrator 22.0.1, SVG Export Plug-In . SVG Version: 6.00 Build 0)  -->
<svg version="1.1" id="Layer_1" xmlns="http://www.w3.org/2000/svg" xmlns:xlink="http://www.w3.org/1999/xlink" x="0px" y="0px"
	 viewBox="0 0 64 64" style="enable-background:new 0 0 64 64;" xml:space="preserve">
<style type="text/css">
	.st0{fill:#C5C5C5;}
</style>
<title>Asset_Icons_Grey</title>
<g id="Help">
	<path class="st0" d="M32,3C16,3,3,16,3,32s13,29,29,29s29-13,29-29S48,3,32,3z M37.1,44.2c0,0-8,7.8-11.6,5
		c-2.4-2.7,0.5-8.8,0.5-8.8l3-8.7c0,0,1.5-3.7,1-4.3s-3.6,1-6,3.1l0.1-2.3c0,0,8-7.8,11.6-5c2.4,2.7-0.5,8.8-0.5,8.8l-3,8.7
		c0,0-1.5,3.7-1,4.3s3.6-1,6-3.1L37.1,44.2z M36.3,21.7c-2.1,0-3.8-1.7-3.8-3.8s1.7-3.8,3.8-3.8c2.1,0,3.8,1.7,3.8,3.8c0,0,0,0,0,0
		C40,20.1,38.3,21.7,36.3,21.7z"/>
</g>
</svg>
