<svg xmlns="http://www.w3.org/2000/svg" width="224" height="177" viewBox="0 0 224 177">
  <metadata><?xpacket begin="﻿" id="W5M0MpCehiHzreSzNTczkc9d"?>
<x:xmpmeta xmlns:x="adobe:ns:meta/" x:xmptk="Adobe XMP Core 5.6-c140 79.160451, 2017/05/06-01:08:21        ">
   <rdf:RDF xmlns:rdf="http://www.w3.org/1999/02/22-rdf-syntax-ns#">
      <rdf:Description rdf:about=""/>
   </rdf:RDF>
</x:xmpmeta>
                                                                                                    
                                                                                                    
                                                                                                    
                                                                                                    
                                                                                                    
                                                                                                    
                                                                                                    
                                                                                                    
                                                                                                    
                                                                                                    
                                                                                                    
                                                                                                    
                                                                                                    
                                                                                                    
                                                                                                    
                                                                                                    
                                                                                                    
                                                                                                    
                                                                                                    
                                                                                                    
                           
<?xpacket end="w"?></metadata>
<defs>
    <style>
      .cls-1 {
        fill: #fff;
        fill-rule: evenodd;
      }
    </style>
  </defs>
  <path id="globe_2" data-name="globe 2" class="cls-1" d="M205.4,92.823a2.739,2.739,0,1,1-2.731,2.739A2.735,2.735,0,0,1,205.4,92.823Zm0-11.86a2.739,2.739,0,1,1-2.731,2.739A2.735,2.735,0,0,1,205.4,80.963Zm0-11.86a2.739,2.739,0,1,1-2.731,2.739A2.735,2.735,0,0,1,205.4,69.1Zm0-11.86a2.739,2.739,0,1,1-2.731,2.739A2.735,2.735,0,0,1,205.4,57.243Zm-47.356-9.121a2.739,2.739,0,1,1-2.731,2.739A2.735,2.735,0,0,1,158.042,48.121Zm11.852,0a2.739,2.739,0,1,1-2.731,2.739A2.735,2.735,0,0,1,169.894,48.121Zm11.826,0a2.739,2.739,0,1,1-2.731,2.739A2.735,2.735,0,0,1,181.72,48.121Zm11.852,0a2.739,2.739,0,1,1-2.731,2.739A2.735,2.735,0,0,1,193.572,48.121Zm11.826,0a2.739,2.739,0,1,1-2.731,2.739A2.735,2.735,0,0,1,205.4,48.121Zm-94.7,0a2.739,2.739,0,1,1-2.744,2.739A2.741,2.741,0,0,1,110.7,48.121Zm11.839,0a2.739,2.739,0,1,1-2.731,2.739A2.735,2.735,0,0,1,122.538,48.121Zm-23.678,0a2.739,2.739,0,1,1-2.731,2.739A2.735,2.735,0,0,1,98.86,48.121Zm35.5,0a2.739,2.739,0,1,1-2.731,2.739A2.735,2.735,0,0,1,134.364,48.121Zm11.852,0a2.739,2.739,0,1,1-2.731,2.739A2.735,2.735,0,0,1,146.216,48.121ZM49.7,132.978a2.739,2.739,0,1,1-2.731,2.739A2.735,2.735,0,0,1,49.7,132.978Zm0,11.86a2.739,2.739,0,1,1-2.731,2.739A2.735,2.735,0,0,1,49.7,144.838Zm0,11.861a2.739,2.739,0,1,1-2.731,2.739A2.735,2.735,0,0,1,49.7,156.7Zm0,11.86A2.739,2.739,0,1,1,46.97,171.3,2.735,2.735,0,0,1,49.7,168.559Zm0,11.86a2.739,2.739,0,1,1-2.731,2.739A2.735,2.735,0,0,1,49.7,180.419ZM97.03,189.54a2.739,2.739,0,1,1-2.731,2.739A2.736,2.736,0,0,1,97.03,189.54Zm-11.826,0a2.739,2.739,0,1,1-2.731,2.739A2.735,2.735,0,0,1,85.2,189.54Zm-11.839,0a2.739,2.739,0,1,1-2.744,2.739A2.742,2.742,0,0,1,73.366,189.54Zm-11.839,0a2.739,2.739,0,1,1-2.731,2.739A2.736,2.736,0,0,1,61.527,189.54Zm-11.826,0a2.739,2.739,0,1,1-2.731,2.739A2.735,2.735,0,0,1,49.7,189.54Zm71.007,0a2.739,2.739,0,1,1-2.731,2.739A2.735,2.735,0,0,1,120.708,189.54Zm-11.825,0a2.739,2.739,0,1,1-2.731,2.739A2.736,2.736,0,0,1,108.883,189.54Zm-7.73-109.782h6.814V90.391h-6.814a38.834,38.834,0,0,1-2.6,9.7l5.9,3.416-5.306,9.208-6.009-3.476a39.146,39.146,0,0,1-7.112,6.94l3.537,6.138-9.189,5.316-3.609-6.263a38.519,38.519,0,0,1-9.483,2.387v7.391H56.678v-7.594a38.577,38.577,0,0,1-9.247-2.592l-3.845,6.671L34.4,122.318l3.937-6.832A39.138,39.138,0,0,1,31.75,108.7l-6.936,4.012-5.306-9.208,7-4.049a38.8,38.8,0,0,1-2.366-9.068H16V79.758h8.141a38.8,38.8,0,0,1,2.366-9.068l-7-4.049,5.306-9.208,6.936,4.012a39.139,39.139,0,0,1,6.584-6.782L34.4,47.83l9.189-5.315,3.845,6.671a38.6,38.6,0,0,1,9.247-2.592V39H67.289v7.391a38.537,38.537,0,0,1,9.483,2.387l3.609-6.263L89.57,47.83l-3.537,6.139a39.108,39.108,0,0,1,7.112,6.94l6.009-3.476,5.306,9.208-5.9,3.415A38.84,38.84,0,0,1,101.153,79.758ZM61.974,56.506a28.559,28.559,0,1,0,28.5,28.558A28.529,28.529,0,0,0,61.974,56.506Zm0.01,37.429a8.861,8.861,0,1,1,8.843-8.861A8.852,8.852,0,0,1,61.984,93.935Zm147.573,38.954H230.99a56.1,56.1,0,0,1,4.879,20.813H211.277A144.154,144.154,0,0,0,209.557,132.889Zm-9.366-29.449A56.288,56.288,0,0,1,228.9,128.727H208.855A87.484,87.484,0,0,0,200.191,103.44Zm-17.952,25.287V99.674a56.451,56.451,0,0,1,12.812,2.048c3.115,5.245,7.127,14.005,9.662,27.005H182.239Zm-27.271,49.95a143.112,143.112,0,0,1-1.743-20.812h24.859v20.812H154.968Zm-0.04-45.788h23.156V153.7H153.2A144.034,144.034,0,0,1,154.928,132.889Zm10.4-31.259a55.92,55.92,0,0,1,12.757-1.949v29.046H155.613C158.162,115.653,162.206,106.864,165.327,101.63Zm-34.514,27.1a56.316,56.316,0,0,1,29.41-25.459c-2.957,5.355-6.46,13.684-8.758,25.459H130.813ZM149.046,153.7H123.933a55.842,55.842,0,0,1,4.8-20.813h22.035A144.431,144.431,0,0,0,149.046,153.7Zm1.771,24.975H128.892a55.623,55.623,0,0,1-4.991-20.812h25.165A142.826,142.826,0,0,0,150.817,178.677Zm0.681,4.163c2.314,11.892,5.868,20.212,8.843,25.5a56.192,56.192,0,0,1-29.468-25.5H151.5Zm26.586,0v29.045a56,56,0,0,1-12.621-1.91c-3.127-5.137-7.193-13.967-9.766-27.135h22.387Zm26.546,0c-2.558,13.089-6.593,21.89-9.713,27.039a56.69,56.69,0,0,1-12.678,1.93V182.84H204.63Zm-22.391-24.975H207.1a143.092,143.092,0,0,1-1.745,20.812H182.239V157.865Zm24.883-4.163H182.239V132.889H205.4A144.044,144.044,0,0,1,207.122,153.7Zm4.136,4.163h24.565a55.994,55.994,0,0,1-4.964,20.812H209.508A142.8,142.8,0,0,0,211.258,157.865ZM228.87,182.84a56.02,56.02,0,0,1-28.793,25.328c2.956-5.3,6.463-13.559,8.754-25.328H228.87ZM179.9,95.567a60.217,60.217,0,1,1-60.1,60.216A60.157,60.157,0,0,1,179.9,95.567Z" transform="translate(-16 -39)"/>
</svg>
