<?xml version="1.0" encoding="utf-8"?>
<!-- Generator: Adobe Illustrator 22.0.1, SVG Export Plug-In . SVG Version: 6.00 Build 0)  -->
<svg version="1.1" id="Layer_1" xmlns="http://www.w3.org/2000/svg" xmlns:xlink="http://www.w3.org/1999/xlink" x="0px" y="0px"
	 viewBox="0 0 247 100" style="enable-background:new 0 0 247 100.6;" xml:space="preserve">
<style type="text/css">
	.st0{fill:#4F5858;}
	.st1{enable-background:new    ;}
</style>
<g>
	<path class="st0" d="M177.1,64.7c0.9,0,1.8,0.1,2.6,0.3s1.4,0.4,2.1,0.8c0.5,0.4,1,0.9,1.3,1.6c0.3,0.6,0.5,1.4,0.5,2.3
		c0,1-0.3,1.9-0.6,2.6c-0.4,0.6-1.2,1.3-2.1,1.7c1.3,0.4,2.2,1,2.8,1.9s0.9,1.9,0.9,3.2c0,1-0.3,1.9-0.6,2.7
		c-0.4,0.8-0.9,1.4-1.6,1.8c-0.6,0.5-1.4,0.8-2.3,1c-0.9,0.3-1.8,0.4-2.7,0.4h-9.8V64.7H177.1z M176.5,72.9c0.8,0,1.4-0.1,1.9-0.5
		s0.8-1,0.8-1.8c0-0.5-0.1-0.9-0.3-1.2c-0.1-0.3-0.4-0.5-0.6-0.6s-0.6-0.3-1-0.4s-0.8-0.1-1.2-0.1H172v4.8h4.5V72.9z M176.8,81.5
		c0.4,0,0.9,0,1.3-0.1s0.8-0.3,1-0.4c0.3-0.3,0.5-0.5,0.8-0.8c0.1-0.4,0.3-0.8,0.3-1.3c0-1-0.3-1.8-0.9-2.2
		c-0.6-0.4-1.4-0.6-2.3-0.6h-5v5.6h4.8V81.5z"/>
	<path class="st0" d="M202.8,64.7v3.7h-10.7v4.4h9.8v3.5h-9.8v4.9h11V85h-15.5V64.7H202.8z"/>
	<path class="st0" d="M204.3,68.4v-3.7H221v3.7h-6.1V85h-4.5V68.4H204.3z"/>
	<path class="st0" d="M230.8,64.7l7.6,20.3h-4.7l-1.6-4.5h-7.6l-1.6,4.5h-4.5l7.6-20.3H230.8z M231.1,77.1l-2.6-7.5l0,0l-2.6,7.5
		H231.1z"/>
</g>
<g class="st1">
	<path class="st0" d="M22.7,13c3,0,5.3,0.8,6.9,2.3c1.6,1.6,2.3,3.7,2.3,6.5s-0.8,5-2.3,6.6c-1.6,1.6-3.8,2.3-6.9,2.3h-9.2V43h-4V13
		H22.7z M21.3,27.4c2.3,0,3.9-0.4,5-1.4c1-1,1.6-2.3,1.6-4.1s-0.5-3.2-1.6-4.1c-1.1-0.9-2.7-1.4-5-1.4h-7.8v11H21.3z"/>
	<path class="st0" d="M55.4,42.9c-0.6,0.4-1.5,0.5-2.6,0.5c-0.9,0-1.7-0.3-2.2-0.8c-0.5-0.5-0.8-1.4-0.8-2.5c-1,1.2-2.1,2-3.4,2.5
		c-1.3,0.5-2.7,0.8-4.2,0.8c-1,0-1.9-0.1-2.8-0.3c-0.9-0.2-1.6-0.6-2.3-1c-0.6-0.5-1.2-1.1-1.5-1.9c-0.4-0.8-0.6-1.7-0.6-2.8
		c0-1.2,0.2-2.2,0.6-3c0.4-0.8,1-1.4,1.7-1.9c0.7-0.5,1.5-0.9,2.4-1.1c0.9-0.3,1.8-0.5,2.7-0.6c1-0.2,1.9-0.3,2.8-0.4
		c0.9-0.1,1.7-0.2,2.3-0.4c0.7-0.2,1.2-0.4,1.6-0.8c0.4-0.3,0.6-0.9,0.6-1.5c0-0.8-0.1-1.4-0.4-1.9s-0.7-0.8-1.1-1.1
		c-0.5-0.3-1-0.4-1.6-0.5c-0.6-0.1-1.1-0.1-1.7-0.1c-1.5,0-2.8,0.3-3.8,0.9c-1,0.6-1.6,1.7-1.6,3.3h-3.6c0.1-1.3,0.3-2.5,0.8-3.4
		c0.5-0.9,1.2-1.7,2-2.2s1.8-1,2.9-1.2c1.1-0.3,2.2-0.4,3.5-0.4c1,0,2,0.1,2.9,0.2c1,0.1,1.8,0.4,2.6,0.9c0.8,0.4,1.4,1,1.9,1.8
		c0.5,0.8,0.7,1.8,0.7,3.1v11.1c0,0.8,0,1.5,0.1,1.8c0.1,0.4,0.4,0.6,1,0.6c0.3,0,0.7-0.1,1.1-0.2V42.9z M49.6,31.8
		c-0.4,0.3-1,0.6-1.8,0.7s-1.5,0.3-2.3,0.4c-0.8,0.1-1.6,0.2-2.4,0.3c-0.8,0.1-1.5,0.3-2.2,0.6c-0.6,0.3-1.2,0.7-1.6,1.2
		c-0.4,0.5-0.6,1.2-0.6,2.1c0,0.6,0.1,1.1,0.4,1.5c0.2,0.4,0.5,0.7,0.9,1c0.4,0.3,0.8,0.4,1.3,0.5s1,0.2,1.6,0.2
		c1.2,0,2.2-0.2,3-0.5c0.8-0.3,1.5-0.7,2.1-1.2c0.5-0.5,0.9-1,1.2-1.6c0.3-0.6,0.4-1.1,0.4-1.6V31.8z"/>
	<path class="st0" d="M61.9,21.3v4.6H62c0.9-1.8,1.9-3.1,3.2-3.9c1.3-0.8,2.9-1.2,4.8-1.2v3.8c-1.4,0-2.6,0.2-3.7,0.6
		c-1,0.4-1.8,1-2.4,1.7c-0.6,0.8-1.1,1.7-1.3,2.8c-0.3,1.1-0.4,2.3-0.4,3.7V43h-3.6V21.3H61.9z"/>
	<path class="st0" d="M82,21.3v3.1h-4.3v13.5c0,0.4,0,0.8,0.1,1c0.1,0.3,0.2,0.4,0.4,0.6c0.2,0.1,0.5,0.2,0.8,0.3s0.8,0.1,1.4,0.1
		H82V43h-2.7c-0.9,0-1.7-0.1-2.4-0.2c-0.7-0.1-1.2-0.4-1.6-0.7c-0.4-0.3-0.7-0.8-0.9-1.4c-0.2-0.6-0.3-1.4-0.3-2.4V24.4h-3.7v-3.1
		h3.7v-6.5h3.6v6.5H82z"/>
	<path class="st0" d="M86.1,17.4V13h3.6v4.4H86.1z M89.7,21.3V43h-3.6V21.3H89.7z"/>
	<path class="st0" d="M108.2,25.1c-0.9-0.8-2.1-1.1-3.6-1.1c-1.3,0-2.4,0.2-3.2,0.7c-0.9,0.5-1.6,1.1-2.1,1.9
		c-0.5,0.8-0.9,1.7-1.1,2.7c-0.2,1-0.3,2.1-0.3,3.2c0,1,0.1,2,0.4,2.9c0.2,1,0.6,1.8,1.1,2.5c0.5,0.7,1.2,1.3,2,1.8
		c0.8,0.4,1.8,0.7,2.9,0.7c1.8,0,3.1-0.5,4.1-1.4c1-0.9,1.6-2.2,1.8-3.9h3.7c-0.4,2.7-1.4,4.8-3,6.2c-1.6,1.5-3.8,2.2-6.6,2.2
		c-1.7,0-3.1-0.3-4.4-0.8c-1.3-0.5-2.3-1.3-3.2-2.3c-0.9-1-1.5-2.1-1.9-3.5c-0.4-1.4-0.7-2.8-0.7-4.5s0.2-3.1,0.6-4.6
		s1.1-2.6,1.9-3.7c0.9-1,1.9-1.9,3.2-2.5c1.3-0.6,2.8-0.9,4.5-0.9c1.2,0,2.4,0.1,3.5,0.4c1.1,0.3,2,0.8,2.9,1.4
		c0.8,0.6,1.5,1.4,2,2.3c0.5,0.9,0.9,2.1,1,3.3H110C109.7,26.9,109.1,25.8,108.2,25.1z"/>
	<path class="st0" d="M118,17.4V13h3.6v4.4H118z M121.6,21.3V43H118V21.3H121.6z"/>
	<path class="st0" d="M130.8,21.3v2.9h0.1c0.6-1.2,1.5-2.1,2.8-2.6c1.3-0.5,2.6-0.8,4.2-0.8c1.7,0,3.1,0.3,4.4,0.9
		c1.2,0.6,2.3,1.4,3.1,2.5c0.8,1,1.4,2.3,1.9,3.6c0.4,1.4,0.6,2.8,0.6,4.4s-0.2,3-0.6,4.4c-0.4,1.4-1,2.6-1.8,3.6
		c-0.8,1-1.9,1.8-3.1,2.4s-2.7,0.9-4.3,0.9c-0.5,0-1.1-0.1-1.8-0.2c-0.7-0.1-1.3-0.3-2-0.5c-0.6-0.3-1.3-0.6-1.8-1
		c-0.6-0.4-1.1-1-1.4-1.6h-0.1v11.2h-3.6v-30H130.8z M143.7,29c-0.3-1-0.7-1.8-1.2-2.6s-1.2-1.4-2.1-1.8c-0.9-0.4-1.9-0.7-3-0.7
		c-1.2,0-2.2,0.2-3.1,0.7c-0.8,0.5-1.5,1.1-2.1,1.9c-0.5,0.8-0.9,1.6-1.2,2.6c-0.2,1-0.4,2-0.4,3c0,1.1,0.1,2.1,0.4,3.1
		c0.3,1,0.7,1.9,1.2,2.6s1.3,1.4,2.1,1.8s1.9,0.7,3.2,0.7c1.2,0,2.3-0.2,3.1-0.7c0.8-0.5,1.5-1.1,2-1.9c0.5-0.8,0.9-1.7,1.1-2.7
		c0.2-1,0.3-2,0.3-3.1C144.1,30.9,143.9,30,143.7,29z"/>
	<path class="st0" d="M171.3,42.9c-0.6,0.4-1.5,0.5-2.6,0.5c-0.9,0-1.7-0.3-2.2-0.8c-0.5-0.5-0.8-1.4-0.8-2.5c-1,1.2-2.1,2-3.4,2.5
		c-1.3,0.5-2.7,0.8-4.2,0.8c-1,0-1.9-0.1-2.8-0.3s-1.6-0.6-2.3-1c-0.6-0.5-1.2-1.1-1.5-1.9c-0.4-0.8-0.6-1.7-0.6-2.8
		c0-1.2,0.2-2.2,0.6-3c0.4-0.8,1-1.4,1.7-1.9c0.7-0.5,1.5-0.9,2.4-1.1s1.8-0.5,2.7-0.6c1-0.2,1.9-0.3,2.8-0.4
		c0.9-0.1,1.7-0.2,2.3-0.4c0.7-0.2,1.2-0.4,1.6-0.8c0.4-0.3,0.6-0.9,0.6-1.5c0-0.8-0.1-1.4-0.4-1.9s-0.7-0.8-1.1-1.1
		c-0.5-0.3-1-0.4-1.6-0.5s-1.1-0.1-1.7-0.1c-1.5,0-2.8,0.3-3.8,0.9c-1,0.6-1.6,1.7-1.6,3.3h-3.6c0.1-1.3,0.3-2.5,0.8-3.4
		c0.5-0.9,1.2-1.7,2-2.2s1.8-1,2.9-1.2s2.2-0.4,3.5-0.4c1,0,2,0.1,2.9,0.2c1,0.1,1.8,0.4,2.6,0.9c0.8,0.4,1.4,1,1.9,1.8
		c0.5,0.8,0.7,1.8,0.7,3.1v11.1c0,0.8,0,1.5,0.1,1.8c0.1,0.4,0.4,0.6,1,0.6c0.3,0,0.7-0.1,1.1-0.2V42.9z M165.5,31.8
		c-0.4,0.3-1,0.6-1.8,0.7c-0.7,0.2-1.5,0.3-2.3,0.4c-0.8,0.1-1.6,0.2-2.4,0.3c-0.8,0.1-1.5,0.3-2.2,0.6c-0.6,0.3-1.2,0.7-1.6,1.2
		c-0.4,0.5-0.6,1.2-0.6,2.1c0,0.6,0.1,1.1,0.4,1.5c0.2,0.4,0.5,0.7,0.9,1c0.4,0.3,0.8,0.4,1.3,0.5s1,0.2,1.6,0.2
		c1.2,0,2.2-0.2,3-0.5c0.8-0.3,1.5-0.7,2.1-1.2c0.5-0.5,0.9-1,1.2-1.6c0.3-0.6,0.4-1.1,0.4-1.6V31.8z"/>
	<path class="st0" d="M183.9,21.3v3.1h-4.3v13.5c0,0.4,0,0.8,0.1,1c0.1,0.3,0.2,0.4,0.4,0.6c0.2,0.1,0.5,0.2,0.8,0.3
		c0.4,0,0.8,0.1,1.4,0.1h1.6V43h-2.7c-0.9,0-1.7-0.1-2.4-0.2c-0.7-0.1-1.2-0.4-1.6-0.7c-0.4-0.3-0.7-0.8-0.9-1.4
		c-0.2-0.6-0.3-1.4-0.3-2.4V24.4h-3.7v-3.1h3.7v-6.5h3.6v6.5H183.9z"/>
	<path class="st0" d="M188,17.4V13h3.6v4.4H188z M191.6,21.3V43H188V21.3H191.6z"/>
	<path class="st0" d="M196.6,27.7c0.4-1.4,1.1-2.6,2-3.6c0.9-1,2-1.8,3.3-2.4c1.3-0.6,2.8-0.9,4.5-0.9c1.7,0,3.3,0.3,4.6,0.9
		s2.4,1.4,3.3,2.4c0.9,1,1.6,2.2,2,3.6c0.4,1.4,0.7,2.9,0.7,4.5s-0.2,3.1-0.7,4.5s-1.1,2.6-2,3.6c-0.9,1-2,1.8-3.3,2.4
		c-1.3,0.6-2.8,0.9-4.6,0.9c-1.7,0-3.2-0.3-4.5-0.9c-1.3-0.6-2.4-1.4-3.3-2.4c-0.9-1-1.6-2.2-2-3.6c-0.4-1.4-0.7-2.9-0.7-4.5
		S196.2,29.1,196.6,27.7z M200.3,35.7c0.3,1,0.8,1.9,1.4,2.6c0.6,0.7,1.3,1.2,2.2,1.6c0.8,0.4,1.7,0.5,2.6,0.5
		c0.9,0,1.8-0.2,2.6-0.5c0.8-0.4,1.5-0.9,2.2-1.6s1.1-1.5,1.4-2.6c0.3-1,0.5-2.2,0.5-3.5c0-1.3-0.2-2.5-0.5-3.5
		c-0.4-1-0.8-1.9-1.4-2.6s-1.3-1.2-2.2-1.6c-0.8-0.4-1.7-0.5-2.6-0.5c-0.9,0-1.8,0.2-2.6,0.5c-0.8,0.4-1.5,0.9-2.2,1.6
		c-0.6,0.7-1.1,1.6-1.4,2.6c-0.4,1-0.5,2.2-0.5,3.5C199.7,33.5,199.9,34.6,200.3,35.7z"/>
	<path class="st0" d="M224.6,21.3v3.4h0.1c1.5-2.6,3.8-3.9,7.1-3.9c1.4,0,2.6,0.2,3.6,0.6c1,0.4,1.7,0.9,2.3,1.6
		c0.6,0.7,1,1.5,1.2,2.5c0.2,1,0.4,2,0.4,3.2V43h-3.6V28.3c0-1.3-0.4-2.4-1.2-3.2s-1.9-1.2-3.2-1.2c-1.1,0-2,0.2-2.8,0.5
		c-0.8,0.3-1.5,0.8-2,1.4c-0.5,0.6-0.9,1.3-1.2,2.2c-0.3,0.8-0.4,1.7-0.4,2.7V43h-3.6V21.3H224.6z"/>
</g>
<g class="st1">
	<path class="st0" d="M23.6,54.2c2.9,0,5.1,0.7,6.7,2.1c1.6,1.4,2.4,3.3,2.4,5.8c0,1.8-0.4,3.4-1.2,4.8c-0.8,1.4-2.1,2.3-4,2.8v0.1
		c0.9,0.2,1.6,0.4,2.1,0.8c0.5,0.4,1,0.9,1.3,1.4c0.3,0.5,0.6,1.2,0.7,1.8c0.2,0.7,0.3,1.4,0.4,2.1c0.1,0.7,0.1,1.5,0.1,2.2
		c0,0.8,0.1,1.5,0.2,2.2c0.1,0.7,0.3,1.4,0.5,2.1c0.2,0.7,0.5,1.2,0.9,1.7h-4.5c-0.3-0.3-0.5-0.7-0.6-1.3c-0.1-0.5-0.2-1.1-0.2-1.8
		c0-0.7-0.1-1.4-0.1-2.1s-0.1-1.5-0.3-2.2c-0.1-0.7-0.3-1.4-0.4-2.1S27.4,73.4,27,73c-0.4-0.5-0.8-0.9-1.4-1.2
		c-0.6-0.3-1.4-0.4-2.4-0.4h-9.7v12.8h-4v-30H23.6z M24.5,67.8c0.8-0.1,1.6-0.4,2.2-0.8s1.1-1,1.5-1.6c0.4-0.7,0.6-1.6,0.6-2.7
		c0-1.5-0.4-2.7-1.3-3.7c-0.8-1-2.2-1.4-4.1-1.4h-9.9V68h8.3C22.8,68,23.6,67.9,24.5,67.8z"/>
	<path class="st0" d="M53.1,82.8c-1.6,1.2-3.7,1.8-6.1,1.8c-1.7,0-3.2-0.3-4.5-0.8c-1.3-0.6-2.3-1.3-3.2-2.4c-0.9-1-1.5-2.2-2-3.6
		c-0.4-1.4-0.7-2.9-0.7-4.6c0-1.7,0.3-3.2,0.8-4.5c0.5-1.4,1.2-2.6,2.1-3.6c0.9-1,2-1.8,3.2-2.4c1.2-0.6,2.6-0.8,4.1-0.8
		c1.9,0,3.5,0.4,4.8,1.2c1.3,0.8,2.3,1.8,3.1,3s1.3,2.6,1.6,4c0.3,1.5,0.4,2.8,0.4,4.2H40.3c0,1,0.1,1.9,0.3,2.7
		c0.3,0.9,0.7,1.6,1.2,2.3c0.6,0.7,1.3,1.2,2.1,1.6c0.9,0.4,1.9,0.6,3.1,0.6c1.5,0,2.8-0.3,3.7-1.1c1-0.7,1.6-1.8,1.9-3.2h3.5
		C55.8,79.7,54.7,81.5,53.1,82.8z M52.2,68.8c-0.3-0.8-0.8-1.4-1.3-2c-0.5-0.5-1.2-1-1.9-1.3c-0.7-0.3-1.6-0.5-2.5-0.5
		c-0.9,0-1.8,0.2-2.5,0.5c-0.7,0.3-1.4,0.8-1.9,1.3c-0.5,0.6-1,1.2-1.3,2s-0.5,1.5-0.5,2.4h12.5C52.7,70.4,52.5,69.6,52.2,68.8z"/>
	<path class="st0" d="M64,62.4v2.9H64c0.6-1.2,1.5-2.1,2.8-2.6c1.3-0.5,2.6-0.8,4.2-0.8c1.7,0,3.1,0.3,4.4,0.9
		c1.2,0.6,2.3,1.4,3.1,2.5c0.8,1,1.4,2.3,1.9,3.6s0.6,2.8,0.6,4.4c0,1.5-0.2,3-0.6,4.4c-0.4,1.4-1,2.6-1.8,3.6
		c-0.8,1-1.9,1.8-3.1,2.4c-1.2,0.6-2.7,0.9-4.3,0.9c-0.5,0-1.1-0.1-1.8-0.2c-0.7-0.1-1.3-0.3-2-0.5c-0.6-0.3-1.3-0.6-1.8-1
		c-0.6-0.4-1.1-1-1.4-1.6H64v11.2h-3.6v-30H64z M76.8,70.1c-0.3-1-0.7-1.8-1.2-2.6s-1.2-1.4-2.1-1.8c-0.9-0.4-1.9-0.7-3-0.7
		c-1.2,0-2.2,0.2-3.1,0.7c-0.8,0.5-1.5,1.1-2.1,1.9c-0.5,0.8-0.9,1.6-1.2,2.6c-0.2,1-0.4,2-0.4,3c0,1.1,0.1,2.1,0.4,3.1
		c0.3,1,0.7,1.9,1.2,2.6s1.3,1.4,2.1,1.8c0.9,0.5,1.9,0.7,3.1,0.7c1.2,0,2.3-0.2,3.1-0.7c0.8-0.5,1.5-1.1,2-1.9s0.9-1.7,1.1-2.7
		c0.2-1,0.3-2,0.3-3.1C77.2,72.1,77.1,71.1,76.8,70.1z"/>
	<path class="st0" d="M84.7,68.8c0.4-1.4,1.1-2.6,2-3.6c0.9-1,2-1.8,3.3-2.4c1.3-0.6,2.8-0.9,4.5-0.9c1.7,0,3.3,0.3,4.6,0.9
		c1.3,0.6,2.4,1.4,3.3,2.4c0.9,1,1.6,2.2,2,3.6c0.4,1.4,0.7,2.9,0.7,4.5s-0.2,3.1-0.7,4.5c-0.4,1.4-1.1,2.6-2,3.6
		c-0.9,1-2,1.8-3.3,2.4c-1.3,0.6-2.8,0.9-4.6,0.9c-1.7,0-3.2-0.3-4.5-0.9c-1.3-0.6-2.4-1.4-3.3-2.4c-0.9-1-1.6-2.2-2-3.6
		c-0.4-1.4-0.7-2.9-0.7-4.5S84.2,70.2,84.7,68.8z M88.3,76.8c0.4,1,0.8,1.9,1.4,2.6c0.6,0.7,1.3,1.2,2.2,1.6
		c0.8,0.4,1.7,0.5,2.6,0.5c0.9,0,1.8-0.2,2.6-0.5c0.8-0.4,1.5-0.9,2.2-1.6c0.6-0.7,1.1-1.5,1.4-2.6c0.3-1,0.5-2.2,0.5-3.5
		s-0.2-2.5-0.5-3.5c-0.4-1-0.8-1.9-1.4-2.6c-0.6-0.7-1.3-1.2-2.2-1.6c-0.8-0.4-1.7-0.5-2.6-0.5c-0.9,0-1.8,0.2-2.6,0.5
		c-0.8,0.4-1.5,0.9-2.2,1.6c-0.6,0.7-1.1,1.6-1.4,2.6c-0.4,1-0.5,2.2-0.5,3.5S88,75.8,88.3,76.8z"/>
	<path class="st0" d="M112.5,62.4V67h0.1c0.9-1.8,1.9-3.1,3.2-3.9c1.3-0.8,2.9-1.2,4.8-1.2v3.8c-1.4,0-2.6,0.2-3.7,0.6
		c-1,0.4-1.8,1-2.4,1.7c-0.6,0.8-1.1,1.7-1.3,2.8s-0.4,2.3-0.4,3.7v9.7h-3.6V62.4H112.5z"/>
	<path class="st0" d="M132.5,62.4v3.2h-4.3v13.5c0,0.4,0,0.8,0.1,1c0.1,0.3,0.2,0.4,0.4,0.6s0.5,0.2,0.8,0.3c0.3,0,0.8,0.1,1.4,0.1
		h1.6v3.2h-2.7c-0.9,0-1.7-0.1-2.4-0.2c-0.7-0.1-1.2-0.4-1.6-0.7s-0.7-0.8-0.9-1.4c-0.2-0.6-0.3-1.4-0.3-2.4V65.6H121v-3.2h3.7v-6.5
		h3.6v6.5H132.5z"/>
	<path class="st0" d="M139.2,79.3c0.3,0.5,0.8,1,1.3,1.3c0.5,0.3,1.2,0.6,1.8,0.7c0.7,0.1,1.4,0.2,2.1,0.2c0.6,0,1.1,0,1.8-0.1
		c0.6-0.1,1.2-0.2,1.7-0.5c0.5-0.2,0.9-0.6,1.3-1s0.5-1,0.5-1.7c0-0.9-0.4-1.6-1-2.1c-0.7-0.5-1.6-0.9-2.6-1.2
		c-1.1-0.3-2.2-0.6-3.4-0.8s-2.4-0.6-3.4-1s-1.9-1-2.6-1.8c-0.7-0.8-1-1.9-1-3.3c0-1.1,0.2-2,0.7-2.8c0.5-0.8,1.1-1.4,1.9-1.9
		c0.8-0.5,1.6-0.9,2.6-1.1c1-0.2,1.9-0.4,2.9-0.4c1.2,0,2.4,0.1,3.4,0.3c1,0.2,2,0.6,2.8,1.1c0.8,0.5,1.4,1.2,1.9,2.1
		c0.5,0.9,0.8,2,0.8,3.3H149c-0.1-0.7-0.2-1.3-0.5-1.7c-0.3-0.5-0.7-0.8-1.2-1.1c-0.5-0.3-1-0.5-1.6-0.6c-0.6-0.1-1.2-0.2-1.7-0.2
		c-0.5,0-1.1,0-1.6,0.1s-1,0.2-1.5,0.4c-0.4,0.2-0.8,0.5-1.1,0.8c-0.3,0.4-0.4,0.8-0.4,1.4c0,0.6,0.2,1.1,0.7,1.5
		c0.4,0.4,1,0.7,1.7,1c0.7,0.3,1.4,0.5,2.3,0.7c0.8,0.2,1.7,0.4,2.5,0.6c0.9,0.2,1.8,0.4,2.6,0.7c0.9,0.3,1.6,0.7,2.3,1.1
		c0.7,0.5,1.2,1,1.6,1.7c0.4,0.7,0.6,1.6,0.6,2.6c0,1.3-0.3,2.4-0.8,3.3s-1.3,1.6-2.1,2.1c-0.9,0.5-1.9,0.9-3,1.1
		c-1.1,0.2-2.2,0.3-3.3,0.3c-1.2,0-2.4-0.1-3.4-0.4s-2.1-0.7-2.9-1.2c-0.8-0.6-1.5-1.3-2-2.3c-0.5-0.9-0.8-2.1-0.8-3.4h3.6
		C138.7,78.1,138.9,78.8,139.2,79.3z"/>
</g>
</svg>
