<svg xmlns="http://www.w3.org/2000/svg" width="224" height="150" viewBox="0 0 224 150">
  <metadata><?xpacket begin="﻿" id="W5M0MpCehiHzreSzNTczkc9d"?>
<x:xmpmeta xmlns:x="adobe:ns:meta/" x:xmptk="Adobe XMP Core 5.6-c140 79.160451, 2017/05/06-01:08:21        ">
   <rdf:RDF xmlns:rdf="http://www.w3.org/1999/02/22-rdf-syntax-ns#">
      <rdf:Description rdf:about=""/>
   </rdf:RDF>
</x:xmpmeta>
                                                                                                    
                                                                                                    
                                                                                                    
                                                                                                    
                                                                                                    
                                                                                                    
                                                                                                    
                                                                                                    
                                                                                                    
                                                                                                    
                                                                                                    
                                                                                                    
                                                                                                    
                                                                                                    
                                                                                                    
                                                                                                    
                                                                                                    
                                                                                                    
                                                                                                    
                                                                                                    
                           
<?xpacket end="w"?></metadata>
<defs>
    <style>
      .cls-1 {
        fill: #fff;
        fill-rule: evenodd;
      }
    </style>
  </defs>
  <path id="Laptop_Icon" data-name="Laptop Icon" class="cls-1" d="M139.03,115.216h8.485v34.091H139.03V115.216Zm33.94,0h8.485v34.091H172.97V115.216ZM156,98.171h8.485v51.136H156V98.171Zm33.939-8.523h8.485v59.659h-8.485V89.648ZM54.182,116.92H88.121v4.262H54.182V116.92Zm0,18.75H88.121v4.262H54.182V135.67Zm0-9.375h50.909v4.262H54.182V126.3Zm0,18.75h59.394v4.262H54.182v-4.262Zm0-66.477h16.97V82.83H54.182V78.568Zm0,18.75H88.121v4.262H54.182V97.318Zm0-9.375H79.636V92.2H54.182V87.943Zm0,18.75h29.7v4.262h-29.7v-4.262ZM36.364,53H219.636v3.409H36.364V53Zm0,132.955H219.636v3.409H36.364v-3.409ZM219.636,53h3.394V189.364h-3.394V53ZM32.97,53h3.394V189.364H32.97V53ZM19.394,185.955H236.606v3.409H19.394v-3.409Zm0,13.636H236.606V203H19.394v-3.409Zm217.212-13.636H240V203h-3.394V185.955ZM16,185.955h3.394V203H16V185.955Zm36.485-19.6H72.849v1.7H52.485v-1.7Zm25.455,0H98.3v1.7H77.939v-1.7Zm25.455,0h20.364v1.7H103.394v-1.7Zm-8.485,5.114h20.364v1.7H94.909v-1.7Zm-33.939,0H81.333v1.7H60.97v-1.7Zm67.878-5.114h20.364v1.7H128.848v-1.7Zm25.455,0h20.364v1.7H154.3v-1.7Zm25.455,0h20.363v1.7H179.758v-1.7Zm-8.485,5.114h20.363v1.7H171.273v-1.7Zm-33.94,0H157.7v1.7H137.333v-1.7Zm-30.545,14.489h46.667v7.67H106.788v-7.67Z" transform="translate(-16 -53)"/>
</svg>
