<?xml version="1.0" encoding="utf-8"?>
<!-- Generator: Adobe Illustrator 22.0.1, SVG Export Plug-In . SVG Version: 6.00 Build 0)  -->
<svg version="1.1" id="Layer_1" xmlns="http://www.w3.org/2000/svg" xmlns:xlink="http://www.w3.org/1999/xlink" x="0px" y="0px"
	 viewBox="0 0 224 150" style="enable-background:new 0 0 224 150;" xml:space="preserve">
<style type="text/css">
	.st0{fill:#FFFFFF;}
</style>
<path id="Laptop_Icon" class="st0" d="M123,62.2h8.5v34.1H123V62.2z M157,62.2h8.5v34.1H157V62.2z M140,45.2h8.5v51.1H140V45.2z
	 M173.9,36.6h8.5v59.7h-8.5C173.9,96.3,173.9,36.6,173.9,36.6z M38.2,63.9h33.9v4.3H38.2V63.9z M38.2,82.7h33.9v4.3H38.2V82.7z
	 M38.2,73.3h50.9v4.3H38.2V73.3L38.2,73.3z M38.2,92h59.4v4.3H38.2V92z M38.2,25.6h17v4.3h-17V25.6z M38.2,44.3h33.9v4.3H38.2V44.3z
	 M38.2,34.9h25.5v4.3H38.2V34.9z M38.2,53.7h29.7V58H38.2C38.2,58,38.2,53.7,38.2,53.7z M20.4,0h183.3v3.4H20.4V0z M20.4,133h183.3
	v3.4H20.4V133z M203.6,0h3.4v136.4h-3.4V0z M17,0h3.4v136.4H17V0z M3.4,133h217.2v3.4H3.4V133z M3.4,146.6h217.2v3.4H3.4V146.6z
	 M220.6,133h3.4v17h-3.4V133z M0,133h3.4v17H0V133z M36.5,113.4h20.4v1.7H36.5V113.4z M61.9,113.4h20.4v1.7H61.9L61.9,113.4
	L61.9,113.4z M87.4,113.4h20.4v1.7H87.4L87.4,113.4L87.4,113.4z M78.9,118.5h20.4v1.7H78.9L78.9,118.5L78.9,118.5z M45,118.5h20.4
	v1.7H45L45,118.5L45,118.5z M112.8,113.4h20.4v1.7h-20.4L112.8,113.4L112.8,113.4z M138.3,113.4h20.4v1.7h-20.4L138.3,113.4
	L138.3,113.4z M163.8,113.4h20.4v1.7h-20.4L163.8,113.4L163.8,113.4z M155.3,118.5h20.4v1.7h-20.4L155.3,118.5L155.3,118.5z
	 M121.3,118.5h20.4v1.7h-20.4L121.3,118.5L121.3,118.5z M90.8,133h46.7v7.7H90.8L90.8,133L90.8,133z"/>
</svg>
